<?xml version="1.0" encoding="UTF-8" standalone="no"?>
<!DOCTYPE svg PUBLIC "-//W3C//DTD SVG 1.1//EN"
 "http://www.w3.org/Graphics/SVG/1.1/DTD/svg11.dtd">
<!-- Generated by graphviz version 2.40.1 (20161225.0304)
 -->
<!-- Title: dependencies Pages: 1 -->
<svg width="5889pt" height="284pt"
 viewBox="0.00 0.00 5889.00 284.00" xmlns="http://www.w3.org/2000/svg" xmlns:xlink="http://www.w3.org/1999/xlink">
<g id="graph0" class="graph" transform="scale(1 1) rotate(0) translate(4 280)">
<title>dependencies</title>
<polygon fill="#ffffff" stroke="transparent" points="-4,4 -4,-280 5885,-280 5885,4 -4,4"/>
<text text-anchor="start" x="2919.5091" y="-42.4" font-family="sans-serif" font-weight="bold" font-size="14.00" fill="#000000">Legend</text>
<polygon fill="#ffffb3" stroke="transparent" points="2706.5,-10 2706.5,-30 2726.5,-30 2726.5,-10 2706.5,-10"/>
<text text-anchor="start" x="2730.129" y="-15.4" font-family="sans-serif" font-size="14.00" fill="#000000"> &#160;Declarations</text>
<polygon fill="#8dd3c7" stroke="transparent" points="2819.5,-10 2819.5,-30 2839.5,-30 2839.5,-10 2819.5,-10"/>
<text text-anchor="start" x="2843.2251" y="-15.4" font-family="sans-serif" font-size="14.00" fill="#000000"> &#160;Module</text>
<polygon fill="#80b1d3" stroke="transparent" points="2905.5,-10 2905.5,-30 2925.5,-30 2925.5,-10 2905.5,-10"/>
<text text-anchor="start" x="2929.2812" y="-15.4" font-family="sans-serif" font-size="14.00" fill="#000000"> &#160;Bootstrap</text>
<polygon fill="#fdb462" stroke="transparent" points="3002.5,-10 3002.5,-30 3022.5,-30 3022.5,-10 3002.5,-10"/>
<text text-anchor="start" x="3026.1732" y="-15.4" font-family="sans-serif" font-size="14.00" fill="#000000"> &#160;Providers</text>
<polygon fill="#fb8072" stroke="transparent" points="3098.5,-10 3098.5,-30 3118.5,-30 3118.5,-10 3098.5,-10"/>
<text text-anchor="start" x="3122.2258" y="-15.4" font-family="sans-serif" font-size="14.00" fill="#000000"> &#160;Exports</text>
<g id="clust1" class="cluster">
<title>cluster_AppModule</title>
<polygon fill="none" stroke="#000000" stroke-dasharray="1,5" points="8,-70 8,-268 5873,-268 5873,-70 8,-70"/>
</g>
<g id="clust2" class="cluster">
<title>cluster_AppModule_declarations</title>
<polygon fill="none" stroke="#000000" points="162,-78 162,-130 5865,-130 5865,-78 162,-78"/>
</g>
<g id="clust51" class="cluster">
<title>cluster_AppModule_bootstrap</title>
<polygon fill="none" stroke="#000000" points="3050,-208 3050,-260 3138,-260 3138,-208 3050,-208"/>
</g>
<g id="clust52" class="cluster">
<title>cluster_AppModule_providers</title>
<polygon fill="none" stroke="#000000" points="16,-78 16,-130 154,-130 154,-78 16,-78"/>
</g>
<!-- AboutPage -->
<g id="node1" class="node">
<title>AboutPage</title>
<polygon fill="#ffffb3" stroke="#000000" points="5857.2093,-122 5778.7907,-122 5778.7907,-86 5857.2093,-86 5857.2093,-122"/>
<text text-anchor="middle" x="5818" y="-99.8" font-family="Times,serif" font-size="14.00" fill="#000000">AboutPage</text>
</g>
<!-- AppModule -->
<g id="node47" class="node">
<title>AppModule</title>
<polygon fill="#8dd3c7" stroke="#000000" points="3135.6571,-187 3132.6571,-191 3111.6571,-191 3108.6571,-187 3052.3429,-187 3052.3429,-151 3135.6571,-151 3135.6571,-187"/>
<text text-anchor="middle" x="3094" y="-164.8" font-family="Times,serif" font-size="14.00" fill="#000000">AppModule</text>
</g>
<!-- AboutPage&#45;&gt;AppModule -->
<g id="edge1" class="edge">
<title>AboutPage&#45;&gt;AppModule</title>
<path fill="none" stroke="#000000" d="M5818,-122.1985C5818,-146.3563 5818,-186 5818,-186 5818,-186 3145.6975,-186 3145.6975,-186"/>
<polygon fill="#000000" stroke="#000000" points="3145.6975,-182.5001 3135.6975,-186 3145.6975,-189.5001 3145.6975,-182.5001"/>
</g>
<!-- Actividadhbt1Page -->
<g id="node2" class="node">
<title>Actividadhbt1Page</title>
<polygon fill="#ffffb3" stroke="#000000" points="5760.8104,-122 5637.1896,-122 5637.1896,-86 5760.8104,-86 5760.8104,-122"/>
<text text-anchor="middle" x="5699" y="-99.8" font-family="Times,serif" font-size="14.00" fill="#000000">Actividadhbt1Page</text>
</g>
<!-- Actividadhbt1Page&#45;&gt;AppModule -->
<g id="edge2" class="edge">
<title>Actividadhbt1Page&#45;&gt;AppModule</title>
<path fill="none" stroke="#000000" d="M5699,-122.1532C5699,-145.7566 5699,-184 5699,-184 5699,-184 3145.7085,-184 3145.7085,-184"/>
<polygon fill="#000000" stroke="#000000" points="3145.7085,-180.5001 3135.7085,-184 3145.7084,-187.5001 3145.7085,-180.5001"/>
</g>
<!-- AguaPage -->
<g id="node3" class="node">
<title>AguaPage</title>
<polygon fill="#ffffb3" stroke="#000000" points="5619.5345,-122 5546.4655,-122 5546.4655,-86 5619.5345,-86 5619.5345,-122"/>
<text text-anchor="middle" x="5583" y="-99.8" font-family="Times,serif" font-size="14.00" fill="#000000">AguaPage</text>
</g>
<!-- AguaPage&#45;&gt;AppModule -->
<g id="edge3" class="edge">
<title>AguaPage&#45;&gt;AppModule</title>
<path fill="none" stroke="#000000" d="M5583,-122.3228C5583,-145.6602 5583,-183 5583,-183 5583,-183 3145.8977,-183 3145.8977,-183"/>
<polygon fill="#000000" stroke="#000000" points="3145.8977,-179.5001 3135.8977,-183 3145.8977,-186.5001 3145.8977,-179.5001"/>
</g>
<!-- BienvenidaPage -->
<g id="node4" class="node">
<title>BienvenidaPage</title>
<polygon fill="#ffffb3" stroke="#000000" points="5528.4734,-122 5421.5266,-122 5421.5266,-86 5528.4734,-86 5528.4734,-122"/>
<text text-anchor="middle" x="5475" y="-99.8" font-family="Times,serif" font-size="14.00" fill="#000000">BienvenidaPage</text>
</g>
<!-- BienvenidaPage&#45;&gt;AppModule -->
<g id="edge4" class="edge">
<title>BienvenidaPage&#45;&gt;AppModule</title>
<path fill="none" stroke="#000000" d="M5475,-122.2479C5475,-145.0179 5475,-181 5475,-181 5475,-181 3145.8305,-181 3145.8305,-181"/>
<polygon fill="#000000" stroke="#000000" points="3145.8306,-177.5001 3135.8305,-181 3145.8305,-184.5001 3145.8306,-177.5001"/>
</g>
<!-- CompromisoPage -->
<g id="node5" class="node">
<title>CompromisoPage</title>
<polygon fill="#ffffb3" stroke="#000000" points="5403.3259,-122 5286.6741,-122 5286.6741,-86 5403.3259,-86 5403.3259,-122"/>
<text text-anchor="middle" x="5345" y="-99.8" font-family="Times,serif" font-size="14.00" fill="#000000">CompromisoPage</text>
</g>
<!-- CompromisoPage&#45;&gt;AppModule -->
<g id="edge5" class="edge">
<title>CompromisoPage&#45;&gt;AppModule</title>
<path fill="none" stroke="#000000" d="M5345,-122.0109C5345,-144.4852 5345,-180 5345,-180 5345,-180 3145.9689,-180 3145.9689,-180"/>
<polygon fill="#000000" stroke="#000000" points="3145.9689,-176.5001 3135.9689,-180 3145.9688,-183.5001 3145.9689,-176.5001"/>
</g>
<!-- Compromisohbt1Page -->
<g id="node6" class="node">
<title>Compromisohbt1Page</title>
<polygon fill="#ffffb3" stroke="#000000" points="5268.7162,-122 5127.2838,-122 5127.2838,-86 5268.7162,-86 5268.7162,-122"/>
<text text-anchor="middle" x="5198" y="-99.8" font-family="Times,serif" font-size="14.00" fill="#000000">Compromisohbt1Page</text>
</g>
<!-- Compromisohbt1Page&#45;&gt;AppModule -->
<g id="edge6" class="edge">
<title>Compromisohbt1Page&#45;&gt;AppModule</title>
<path fill="none" stroke="#000000" d="M5198,-122.2921C5198,-144.2057 5198,-178 5198,-178 5198,-178 3146.0282,-178 3146.0282,-178"/>
<polygon fill="#000000" stroke="#000000" points="3146.0282,-174.5001 3136.0282,-178 3146.0282,-181.5001 3146.0282,-174.5001"/>
</g>
<!-- ContactPage -->
<g id="node7" class="node">
<title>ContactPage</title>
<polygon fill="#ffffb3" stroke="#000000" points="5109.2591,-122 5022.7409,-122 5022.7409,-86 5109.2591,-86 5109.2591,-122"/>
<text text-anchor="middle" x="5066" y="-99.8" font-family="Times,serif" font-size="14.00" fill="#000000">ContactPage</text>
</g>
<!-- ContactPage&#45;&gt;AppModule -->
<g id="edge7" class="edge">
<title>ContactPage&#45;&gt;AppModule</title>
<path fill="none" stroke="#000000" d="M5066,-122.0449C5066,-143.6623 5066,-177 5066,-177 5066,-177 3146.1003,-177 3146.1003,-177"/>
<polygon fill="#000000" stroke="#000000" points="3146.1004,-173.5001 3136.1003,-177 3146.1003,-180.5001 3146.1004,-173.5001"/>
</g>
<!-- EvaluacionImcPage -->
<g id="node8" class="node">
<title>EvaluacionImcPage</title>
<polygon fill="#ffffb3" stroke="#000000" points="5004.9552,-122 4877.0448,-122 4877.0448,-86 5004.9552,-86 5004.9552,-122"/>
<text text-anchor="middle" x="4941" y="-99.8" font-family="Times,serif" font-size="14.00" fill="#000000">EvaluacionImcPage</text>
</g>
<!-- EvaluacionImcPage&#45;&gt;AppModule -->
<g id="edge8" class="edge">
<title>EvaluacionImcPage&#45;&gt;AppModule</title>
<path fill="none" stroke="#000000" d="M4941,-122.2843C4941,-143.3211 4941,-175 4941,-175 4941,-175 3146.0475,-175 3146.0475,-175"/>
<polygon fill="#000000" stroke="#000000" points="3146.0475,-171.5001 3136.0475,-175 3146.0474,-178.5001 3146.0475,-171.5001"/>
</g>
<!-- EvaluacionPage -->
<g id="node9" class="node">
<title>EvaluacionPage</title>
<polygon fill="#ffffb3" stroke="#000000" points="4859.1896,-122 4752.8104,-122 4752.8104,-86 4859.1896,-86 4859.1896,-122"/>
<text text-anchor="middle" x="4806" y="-99.8" font-family="Times,serif" font-size="14.00" fill="#000000">EvaluacionPage</text>
</g>
<!-- EvaluacionPage&#45;&gt;AppModule -->
<g id="edge9" class="edge">
<title>EvaluacionPage&#45;&gt;AppModule</title>
<path fill="none" stroke="#000000" d="M4806,-122.0267C4806,-142.7672 4806,-174 4806,-174 4806,-174 3145.8942,-174 3145.8942,-174"/>
<polygon fill="#000000" stroke="#000000" points="3145.8942,-170.5001 3135.8942,-174 3145.8942,-177.5001 3145.8942,-170.5001"/>
</g>
<!-- Habito1Page -->
<g id="node10" class="node">
<title>Habito1Page</title>
<polygon fill="#ffffb3" stroke="#000000" points="4735.3148,-122 4646.6852,-122 4646.6852,-86 4735.3148,-86 4735.3148,-122"/>
<text text-anchor="middle" x="4691" y="-99.8" font-family="Times,serif" font-size="14.00" fill="#000000">Habito1Page</text>
</g>
<!-- Habito1Page&#45;&gt;AppModule -->
<g id="edge10" class="edge">
<title>Habito1Page&#45;&gt;AppModule</title>
<path fill="none" stroke="#000000" d="M4691,-122.2228C4691,-142.3652 4691,-172 4691,-172 4691,-172 3145.895,-172 3145.895,-172"/>
<polygon fill="#000000" stroke="#000000" points="3145.895,-168.5001 3135.895,-172 3145.895,-175.5001 3145.895,-168.5001"/>
</g>
<!-- Habito2Page -->
<g id="node11" class="node">
<title>Habito2Page</title>
<polygon fill="#ffffb3" stroke="#000000" points="4629.3148,-122 4540.6852,-122 4540.6852,-86 4629.3148,-86 4629.3148,-122"/>
<text text-anchor="middle" x="4585" y="-99.8" font-family="Times,serif" font-size="14.00" fill="#000000">Habito2Page</text>
</g>
<!-- Habito2Page&#45;&gt;AppModule -->
<g id="edge11" class="edge">
<title>Habito2Page&#45;&gt;AppModule</title>
<path fill="none" stroke="#000000" d="M4585,-122.308C4585,-142.1455 4585,-171 4585,-171 4585,-171 3145.8267,-171 3145.8267,-171"/>
<polygon fill="#000000" stroke="#000000" points="3145.8267,-167.5001 3135.8267,-171 3145.8266,-174.5001 3145.8267,-167.5001"/>
</g>
<!-- Habito3Page -->
<g id="node12" class="node">
<title>Habito3Page</title>
<polygon fill="#ffffb3" stroke="#000000" points="4523.3148,-122 4434.6852,-122 4434.6852,-86 4523.3148,-86 4523.3148,-122"/>
<text text-anchor="middle" x="4479" y="-99.8" font-family="Times,serif" font-size="14.00" fill="#000000">Habito3Page</text>
</g>
<!-- Habito3Page&#45;&gt;AppModule -->
<g id="edge12" class="edge">
<title>Habito3Page&#45;&gt;AppModule</title>
<path fill="none" stroke="#000000" d="M4479,-122.1061C4479,-141.3391 4479,-169 4479,-169 4479,-169 3145.8276,-169 3145.8276,-169"/>
<polygon fill="#000000" stroke="#000000" points="3145.8277,-165.5001 3135.8276,-169 3145.8276,-172.5001 3145.8277,-165.5001"/>
</g>
<!-- Habito4Page -->
<g id="node13" class="node">
<title>Habito4Page</title>
<polygon fill="#ffffb3" stroke="#000000" points="4417.3148,-122 4328.6852,-122 4328.6852,-86 4417.3148,-86 4417.3148,-122"/>
<text text-anchor="middle" x="4373" y="-99.8" font-family="Times,serif" font-size="14.00" fill="#000000">Habito4Page</text>
</g>
<!-- Habito4Page&#45;&gt;AppModule -->
<g id="edge13" class="edge">
<title>Habito4Page&#45;&gt;AppModule</title>
<path fill="none" stroke="#000000" d="M4373,-122.1686C4373,-141.0898 4373,-168 4373,-168 4373,-168 3145.8275,-168 3145.8275,-168"/>
<polygon fill="#000000" stroke="#000000" points="3145.8275,-164.5001 3135.8275,-168 3145.8274,-171.5001 3145.8275,-164.5001"/>
</g>
<!-- Habito5Page -->
<g id="node14" class="node">
<title>Habito5Page</title>
<polygon fill="#ffffb3" stroke="#000000" points="4311.3148,-122 4222.6852,-122 4222.6852,-86 4311.3148,-86 4311.3148,-122"/>
<text text-anchor="middle" x="4267" y="-99.8" font-family="Times,serif" font-size="14.00" fill="#000000">Habito5Page</text>
</g>
<!-- Habito5Page&#45;&gt;AppModule -->
<g id="edge14" class="edge">
<title>Habito5Page&#45;&gt;AppModule</title>
<path fill="none" stroke="#000000" d="M4267,-122.2667C4267,-140.5552 4267,-166 4267,-166 4267,-166 3145.7477,-166 3145.7477,-166"/>
<polygon fill="#000000" stroke="#000000" points="3145.7477,-162.5001 3135.7477,-166 3145.7477,-169.5001 3145.7477,-162.5001"/>
</g>
<!-- Habito6Page -->
<g id="node15" class="node">
<title>Habito6Page</title>
<polygon fill="#ffffb3" stroke="#000000" points="4205.3148,-122 4116.6852,-122 4116.6852,-86 4205.3148,-86 4205.3148,-122"/>
<text text-anchor="middle" x="4161" y="-99.8" font-family="Times,serif" font-size="14.00" fill="#000000">Habito6Page</text>
</g>
<!-- Habito6Page&#45;&gt;AppModule -->
<g id="edge15" class="edge">
<title>Habito6Page&#45;&gt;AppModule</title>
<path fill="none" stroke="#000000" d="M4161,-122.302C4161,-140.2699 4161,-165 4161,-165 4161,-165 3145.8277,-165 3145.8277,-165"/>
<polygon fill="#000000" stroke="#000000" points="3145.8277,-161.5001 3135.8277,-165 3145.8276,-168.5001 3145.8277,-161.5001"/>
</g>
<!-- Habito7Page -->
<g id="node16" class="node">
<title>Habito7Page</title>
<polygon fill="#ffffb3" stroke="#000000" points="4099.3148,-122 4010.6852,-122 4010.6852,-86 4099.3148,-86 4099.3148,-122"/>
<text text-anchor="middle" x="4055" y="-99.8" font-family="Times,serif" font-size="14.00" fill="#000000">Habito7Page</text>
</g>
<!-- Habito7Page&#45;&gt;AppModule -->
<g id="edge16" class="edge">
<title>Habito7Page&#45;&gt;AppModule</title>
<path fill="none" stroke="#000000" d="M4055,-122.0225C4055,-139.3734 4055,-163 4055,-163 4055,-163 3145.9109,-163 3145.9109,-163"/>
<polygon fill="#000000" stroke="#000000" points="3145.9109,-159.5001 3135.9109,-163 3145.9109,-166.5001 3145.9109,-159.5001"/>
</g>
<!-- Habito8Page -->
<g id="node17" class="node">
<title>Habito8Page</title>
<polygon fill="#ffffb3" stroke="#000000" points="3993.3148,-122 3904.6852,-122 3904.6852,-86 3993.3148,-86 3993.3148,-122"/>
<text text-anchor="middle" x="3949" y="-99.8" font-family="Times,serif" font-size="14.00" fill="#000000">Habito8Page</text>
</g>
<!-- Habito8Page&#45;&gt;AppModule -->
<g id="edge17" class="edge">
<title>Habito8Page&#45;&gt;AppModule</title>
<path fill="none" stroke="#000000" d="M3949,-122.0336C3949,-139.0597 3949,-162 3949,-162 3949,-162 3145.8172,-162 3145.8172,-162"/>
<polygon fill="#000000" stroke="#000000" points="3145.8172,-158.5001 3135.8172,-162 3145.8172,-165.5001 3145.8172,-158.5001"/>
</g>
<!-- HomePage -->
<g id="node18" class="node">
<title>HomePage</title>
<polygon fill="#ffffb3" stroke="#000000" points="3886.9248,-122 3809.0752,-122 3809.0752,-86 3886.9248,-86 3886.9248,-122"/>
<text text-anchor="middle" x="3848" y="-99.8" font-family="Times,serif" font-size="14.00" fill="#000000">HomePage</text>
</g>
<!-- HomePage&#45;&gt;AppModule -->
<g id="edge18" class="edge">
<title>HomePage&#45;&gt;AppModule</title>
<path fill="none" stroke="#000000" d="M3848,-122.027C3848,-138.3976 3848,-160 3848,-160 3848,-160 3145.8828,-160 3145.8828,-160"/>
<polygon fill="#000000" stroke="#000000" points="3145.8828,-156.5001 3135.8828,-160 3145.8827,-163.5001 3145.8828,-156.5001"/>
</g>
<!-- InstruccionesPage -->
<g id="node19" class="node">
<title>InstruccionesPage</title>
<polygon fill="#ffffb3" stroke="#000000" points="3790.8473,-122 3673.1527,-122 3673.1527,-86 3790.8473,-86 3790.8473,-122"/>
<text text-anchor="middle" x="3732" y="-99.8" font-family="Times,serif" font-size="14.00" fill="#000000">InstruccionesPage</text>
</g>
<!-- InstruccionesPage&#45;&gt;AppModule -->
<g id="edge19" class="edge">
<title>InstruccionesPage&#45;&gt;AppModule</title>
<path fill="none" stroke="#000000" d="M3732,-122.0091C3732,-138.0494 3732,-159 3732,-159 3732,-159 3145.861,-159 3145.861,-159"/>
<polygon fill="#000000" stroke="#000000" points="3145.861,-155.5001 3135.861,-159 3145.8609,-162.5001 3145.861,-155.5001"/>
</g>
<!-- IntrotestaguaPage -->
<g id="node20" class="node">
<title>IntrotestaguaPage</title>
<polygon fill="#ffffb3" stroke="#000000" points="3655.2936,-122 3538.7064,-122 3538.7064,-86 3655.2936,-86 3655.2936,-122"/>
<text text-anchor="middle" x="3597" y="-99.8" font-family="Times,serif" font-size="14.00" fill="#000000">IntrotestaguaPage</text>
</g>
<!-- IntrotestaguaPage&#45;&gt;AppModule -->
<g id="edge20" class="edge">
<title>IntrotestaguaPage&#45;&gt;AppModule</title>
<path fill="none" stroke="#000000" d="M3597,-122.2396C3597,-137.5706 3597,-157 3597,-157 3597,-157 3146.0203,-157 3146.0203,-157"/>
<polygon fill="#000000" stroke="#000000" points="3146.0204,-153.5001 3136.0203,-157 3146.0203,-160.5001 3146.0204,-153.5001"/>
</g>
<!-- LoginPage -->
<g id="node21" class="node">
<title>LoginPage</title>
<polygon fill="#ffffb3" stroke="#000000" points="3521.1558,-122 3444.8442,-122 3444.8442,-86 3521.1558,-86 3521.1558,-122"/>
<text text-anchor="middle" x="3483" y="-99.8" font-family="Times,serif" font-size="14.00" fill="#000000">LoginPage</text>
</g>
<!-- LoginPage&#45;&gt;AppModule -->
<g id="edge21" class="edge">
<title>LoginPage&#45;&gt;AppModule</title>
<path fill="none" stroke="#000000" d="M3483,-122.1871C3483,-137.1824 3483,-156 3483,-156 3483,-156 3145.9994,-156 3145.9994,-156"/>
<polygon fill="#000000" stroke="#000000" points="3145.9994,-152.5001 3135.9994,-156 3145.9994,-159.5001 3145.9994,-152.5001"/>
</g>
<!-- MenuHabitosPage -->
<g id="node22" class="node">
<title>MenuHabitosPage</title>
<polygon fill="#ffffb3" stroke="#000000" points="3426.9187,-122 3307.0813,-122 3307.0813,-86 3426.9187,-86 3426.9187,-122"/>
<text text-anchor="middle" x="3367" y="-99.8" font-family="Times,serif" font-size="14.00" fill="#000000">MenuHabitosPage</text>
</g>
<!-- MenuHabitosPage&#45;&gt;AppModule -->
<g id="edge22" class="edge">
<title>MenuHabitosPage&#45;&gt;AppModule</title>
<path fill="none" stroke="#000000" d="M3367,-122.0511C3367,-136.373 3367,-154 3367,-154 3367,-154 3145.76,-154 3145.76,-154"/>
<polygon fill="#000000" stroke="#000000" points="3145.76,-150.5001 3135.76,-154 3145.76,-157.5001 3145.76,-150.5001"/>
</g>
<!-- MenuPrincipalPage -->
<g id="node23" class="node">
<title>MenuPrincipalPage</title>
<polygon fill="#ffffb3" stroke="#000000" points="3289.4159,-122 3162.5841,-122 3162.5841,-86 3289.4159,-86 3289.4159,-122"/>
<text text-anchor="middle" x="3226" y="-99.8" font-family="Times,serif" font-size="14.00" fill="#000000">MenuPrincipalPage</text>
</g>
<!-- MenuPrincipalPage&#45;&gt;AppModule -->
<g id="edge23" class="edge">
<title>MenuPrincipalPage&#45;&gt;AppModule</title>
<path fill="none" stroke="#000000" d="M3226,-122.2458C3226,-136.1772 3226,-153 3226,-153 3226,-153 3145.7656,-153 3145.7656,-153"/>
<polygon fill="#000000" stroke="#000000" points="3145.7657,-149.5001 3135.7656,-153 3145.7656,-156.5001 3145.7657,-149.5001"/>
</g>
<!-- ModalImcPage -->
<g id="node24" class="node">
<title>ModalImcPage</title>
<polygon fill="#ffffb3" stroke="#000000" points="3144.5285,-122 3043.4715,-122 3043.4715,-86 3144.5285,-86 3144.5285,-122"/>
<text text-anchor="middle" x="3094" y="-99.8" font-family="Times,serif" font-size="14.00" fill="#000000">ModalImcPage</text>
</g>
<!-- ModalImcPage&#45;&gt;AppModule -->
<g id="edge24" class="edge">
<title>ModalImcPage&#45;&gt;AppModule</title>
<path fill="none" stroke="#000000" d="M3094,-122.1061C3094,-122.1061 3094,-140.991 3094,-140.991"/>
<polygon fill="#000000" stroke="#000000" points="3090.5001,-140.9909 3094,-150.991 3097.5001,-140.991 3090.5001,-140.9909"/>
</g>
<!-- ModalReflexionar1Page -->
<g id="node25" class="node">
<title>ModalReflexionar1Page</title>
<polygon fill="#ffffb3" stroke="#000000" points="3025.3445,-122 2872.6555,-122 2872.6555,-86 3025.3445,-86 3025.3445,-122"/>
<text text-anchor="middle" x="2949" y="-99.8" font-family="Times,serif" font-size="14.00" fill="#000000">ModalReflexionar1Page</text>
</g>
<!-- ModalReflexionar1Page&#45;&gt;AppModule -->
<g id="edge25" class="edge">
<title>ModalReflexionar1Page&#45;&gt;AppModule</title>
<path fill="none" stroke="#000000" d="M2949,-122.2458C2949,-136.1772 2949,-153 2949,-153 2949,-153 3042.06,-153 3042.06,-153"/>
<polygon fill="#000000" stroke="#000000" points="3042.06,-156.5001 3052.06,-153 3042.06,-149.5001 3042.06,-156.5001"/>
</g>
<!-- ModalTips1Page -->
<g id="node26" class="node">
<title>ModalTips1Page</title>
<polygon fill="#ffffb3" stroke="#000000" points="2854.6499,-122 2743.3501,-122 2743.3501,-86 2854.6499,-86 2854.6499,-122"/>
<text text-anchor="middle" x="2799" y="-99.8" font-family="Times,serif" font-size="14.00" fill="#000000">ModalTips1Page</text>
</g>
<!-- ModalTips1Page&#45;&gt;AppModule -->
<g id="edge26" class="edge">
<title>ModalTips1Page&#45;&gt;AppModule</title>
<path fill="none" stroke="#000000" d="M2799,-122.0511C2799,-136.373 2799,-154 2799,-154 2799,-154 3042.047,-154 3042.047,-154"/>
<polygon fill="#000000" stroke="#000000" points="3042.047,-157.5001 3052.047,-154 3042.0469,-150.5001 3042.047,-157.5001"/>
</g>
<!-- MyApp -->
<g id="node27" class="node">
<title>MyApp</title>
<polygon fill="#ffffb3" stroke="#000000" points="2724.5529,-122 2665.4471,-122 2665.4471,-86 2724.5529,-86 2724.5529,-122"/>
<text text-anchor="middle" x="2695" y="-99.8" font-family="Times,serif" font-size="14.00" fill="#000000">MyApp</text>
</g>
<!-- MyApp&#45;&gt;AppModule -->
<g id="edge27" class="edge">
<title>MyApp&#45;&gt;AppModule</title>
<path fill="none" stroke="#000000" d="M2695,-122.1871C2695,-137.1824 2695,-156 2695,-156 2695,-156 3042.0541,-156 3042.0541,-156"/>
<polygon fill="#000000" stroke="#000000" points="3042.0542,-159.5001 3052.0541,-156 3042.0541,-152.5001 3042.0542,-159.5001"/>
</g>
<!-- PerimetroAbdominalPage -->
<g id="node28" class="node">
<title>PerimetroAbdominalPage</title>
<polygon fill="#ffffb3" stroke="#000000" points="2647.9101,-122 2486.0899,-122 2486.0899,-86 2647.9101,-86 2647.9101,-122"/>
<text text-anchor="middle" x="2567" y="-99.8" font-family="Times,serif" font-size="14.00" fill="#000000">PerimetroAbdominalPage</text>
</g>
<!-- PerimetroAbdominalPage&#45;&gt;AppModule -->
<g id="edge28" class="edge">
<title>PerimetroAbdominalPage&#45;&gt;AppModule</title>
<path fill="none" stroke="#000000" d="M2567,-122.2396C2567,-137.5706 2567,-157 2567,-157 2567,-157 3042.2067,-157 3042.2067,-157"/>
<polygon fill="#000000" stroke="#000000" points="3042.2067,-160.5001 3052.2067,-157 3042.2067,-153.5001 3042.2067,-160.5001"/>
</g>
<!-- RegistroPage -->
<g id="node29" class="node">
<title>RegistroPage</title>
<polygon fill="#ffffb3" stroke="#000000" points="2468.1501,-122 2377.8499,-122 2377.8499,-86 2468.1501,-86 2468.1501,-122"/>
<text text-anchor="middle" x="2423" y="-99.8" font-family="Times,serif" font-size="14.00" fill="#000000">RegistroPage</text>
</g>
<!-- RegistroPage&#45;&gt;AppModule -->
<g id="edge29" class="edge">
<title>RegistroPage&#45;&gt;AppModule</title>
<path fill="none" stroke="#000000" d="M2423,-122.0091C2423,-138.0494 2423,-159 2423,-159 2423,-159 3042.2795,-159 3042.2795,-159"/>
<polygon fill="#000000" stroke="#000000" points="3042.2795,-162.5001 3052.2795,-159 3042.2794,-155.5001 3042.2795,-162.5001"/>
</g>
<!-- ResultadoImcPage -->
<g id="node30" class="node">
<title>ResultadoImcPage</title>
<polygon fill="#ffffb3" stroke="#000000" points="2359.4692,-122 2238.5308,-122 2238.5308,-86 2359.4692,-86 2359.4692,-122"/>
<text text-anchor="middle" x="2299" y="-99.8" font-family="Times,serif" font-size="14.00" fill="#000000">ResultadoImcPage</text>
</g>
<!-- ResultadoImcPage&#45;&gt;AppModule -->
<g id="edge30" class="edge">
<title>ResultadoImcPage&#45;&gt;AppModule</title>
<path fill="none" stroke="#000000" d="M2299,-122.027C2299,-138.3976 2299,-160 2299,-160 2299,-160 3042.0981,-160 3042.0981,-160"/>
<polygon fill="#000000" stroke="#000000" points="3042.0981,-163.5001 3052.0981,-160 3042.098,-156.5001 3042.0981,-163.5001"/>
</g>
<!-- ResultadoSaludPage -->
<g id="node31" class="node">
<title>ResultadoSaludPage</title>
<polygon fill="#ffffb3" stroke="#000000" points="2220.5912,-122 2089.4088,-122 2089.4088,-86 2220.5912,-86 2220.5912,-122"/>
<text text-anchor="middle" x="2155" y="-99.8" font-family="Times,serif" font-size="14.00" fill="#000000">ResultadoSaludPage</text>
</g>
<!-- ResultadoSaludPage&#45;&gt;AppModule -->
<g id="edge31" class="edge">
<title>ResultadoSaludPage&#45;&gt;AppModule</title>
<path fill="none" stroke="#000000" d="M2155,-122.0336C2155,-139.0597 2155,-162 2155,-162 2155,-162 3042.1353,-162 3042.1353,-162"/>
<polygon fill="#000000" stroke="#000000" points="3042.1354,-165.5001 3052.1353,-162 3042.1353,-158.5001 3042.1354,-165.5001"/>
</g>
<!-- RsaludPage -->
<g id="node32" class="node">
<title>RsaludPage</title>
<polygon fill="#ffffb3" stroke="#000000" points="2071.0983,-122 1988.9017,-122 1988.9017,-86 2071.0983,-86 2071.0983,-122"/>
<text text-anchor="middle" x="2030" y="-99.8" font-family="Times,serif" font-size="14.00" fill="#000000">RsaludPage</text>
</g>
<!-- RsaludPage&#45;&gt;AppModule -->
<g id="edge32" class="edge">
<title>RsaludPage&#45;&gt;AppModule</title>
<path fill="none" stroke="#000000" d="M2030,-122.0225C2030,-139.3734 2030,-163 2030,-163 2030,-163 3042.2899,-163 3042.2899,-163"/>
<polygon fill="#000000" stroke="#000000" points="3042.29,-166.5001 3052.2899,-163 3042.2899,-159.5001 3042.29,-166.5001"/>
</g>
<!-- RtestaguaPage -->
<g id="node33" class="node">
<title>RtestaguaPage</title>
<polygon fill="#ffffb3" stroke="#000000" points="1971.4189,-122 1872.5811,-122 1872.5811,-86 1971.4189,-86 1971.4189,-122"/>
<text text-anchor="middle" x="1922" y="-99.8" font-family="Times,serif" font-size="14.00" fill="#000000">RtestaguaPage</text>
</g>
<!-- RtestaguaPage&#45;&gt;AppModule -->
<g id="edge33" class="edge">
<title>RtestaguaPage&#45;&gt;AppModule</title>
<path fill="none" stroke="#000000" d="M1922,-122.302C1922,-140.2699 1922,-165 1922,-165 1922,-165 3042.2879,-165 3042.2879,-165"/>
<polygon fill="#000000" stroke="#000000" points="3042.2879,-168.5001 3052.2879,-165 3042.2879,-161.5001 3042.2879,-168.5001"/>
</g>
<!-- SaludPage -->
<g id="node34" class="node">
<title>SaludPage</title>
<polygon fill="#ffffb3" stroke="#000000" points="1854.5997,-122 1779.4003,-122 1779.4003,-86 1854.5997,-86 1854.5997,-122"/>
<text text-anchor="middle" x="1817" y="-99.8" font-family="Times,serif" font-size="14.00" fill="#000000">SaludPage</text>
</g>
<!-- SaludPage&#45;&gt;AppModule -->
<g id="edge34" class="edge">
<title>SaludPage&#45;&gt;AppModule</title>
<path fill="none" stroke="#000000" d="M1817,-122.2667C1817,-140.5552 1817,-166 1817,-166 1817,-166 3042.2379,-166 3042.2379,-166"/>
<polygon fill="#000000" stroke="#000000" points="3042.238,-169.5001 3052.2379,-166 3042.2379,-162.5001 3042.238,-169.5001"/>
</g>
<!-- SaludoPage -->
<g id="node35" class="node">
<title>SaludoPage</title>
<polygon fill="#ffffb3" stroke="#000000" points="1761.0997,-122 1678.9003,-122 1678.9003,-86 1761.0997,-86 1761.0997,-122"/>
<text text-anchor="middle" x="1720" y="-99.8" font-family="Times,serif" font-size="14.00" fill="#000000">SaludoPage</text>
</g>
<!-- SaludoPage&#45;&gt;AppModule -->
<g id="edge35" class="edge">
<title>SaludoPage&#45;&gt;AppModule</title>
<path fill="none" stroke="#000000" d="M1720,-122.1686C1720,-141.0898 1720,-168 1720,-168 1720,-168 3042.1287,-168 3042.1287,-168"/>
<polygon fill="#000000" stroke="#000000" points="3042.1287,-171.5001 3052.1287,-168 3042.1286,-164.5001 3042.1287,-171.5001"/>
</g>
<!-- SlidePage -->
<g id="node36" class="node">
<title>SlidePage</title>
<polygon fill="#ffffb3" stroke="#000000" points="1660.9902,-122 1589.0098,-122 1589.0098,-86 1660.9902,-86 1660.9902,-122"/>
<text text-anchor="middle" x="1625" y="-99.8" font-family="Times,serif" font-size="14.00" fill="#000000">SlidePage</text>
</g>
<!-- SlidePage&#45;&gt;AppModule -->
<g id="edge36" class="edge">
<title>SlidePage&#45;&gt;AppModule</title>
<path fill="none" stroke="#000000" d="M1625,-122.1061C1625,-141.3391 1625,-169 1625,-169 1625,-169 3042.0118,-169 3042.0118,-169"/>
<polygon fill="#000000" stroke="#000000" points="3042.0118,-172.5001 3052.0118,-169 3042.0118,-165.5001 3042.0118,-172.5001"/>
</g>
<!-- TabsPage -->
<g id="node37" class="node">
<title>TabsPage</title>
<polygon fill="#ffffb3" stroke="#000000" points="1571.4249,-122 1500.5751,-122 1500.5751,-86 1571.4249,-86 1571.4249,-122"/>
<text text-anchor="middle" x="1536" y="-99.8" font-family="Times,serif" font-size="14.00" fill="#000000">TabsPage</text>
</g>
<!-- TabsPage&#45;&gt;AppModule -->
<g id="edge37" class="edge">
<title>TabsPage&#45;&gt;AppModule</title>
<path fill="none" stroke="#000000" d="M1536,-122.308C1536,-142.1455 1536,-171 1536,-171 1536,-171 3042.3273,-171 3042.3273,-171"/>
<polygon fill="#000000" stroke="#000000" points="3042.3273,-174.5001 3052.3273,-171 3042.3272,-167.5001 3042.3273,-174.5001"/>
</g>
<!-- TestActitudpositivaPage -->
<g id="node38" class="node">
<title>TestActitudpositivaPage</title>
<polygon fill="#ffffb3" stroke="#000000" points="1482.6386,-122 1329.3614,-122 1329.3614,-86 1482.6386,-86 1482.6386,-122"/>
<text text-anchor="middle" x="1406" y="-99.8" font-family="Times,serif" font-size="14.00" fill="#000000">TestActitudpositivaPage</text>
</g>
<!-- TestActitudpositivaPage&#45;&gt;AppModule -->
<g id="edge38" class="edge">
<title>TestActitudpositivaPage&#45;&gt;AppModule</title>
<path fill="none" stroke="#000000" d="M1406,-122.2228C1406,-142.3652 1406,-172 1406,-172 1406,-172 3042.2739,-172 3042.2739,-172"/>
<polygon fill="#000000" stroke="#000000" points="3042.274,-175.5001 3052.2739,-172 3042.2739,-168.5001 3042.274,-175.5001"/>
</g>
<!-- TestActividadfisicaPage -->
<g id="node39" class="node">
<title>TestActividadfisicaPage</title>
<polygon fill="#ffffb3" stroke="#000000" points="1311.3375,-122 1158.6625,-122 1158.6625,-86 1311.3375,-86 1311.3375,-122"/>
<text text-anchor="middle" x="1235" y="-99.8" font-family="Times,serif" font-size="14.00" fill="#000000">TestActividadfisicaPage</text>
</g>
<!-- TestActividadfisicaPage&#45;&gt;AppModule -->
<g id="edge39" class="edge">
<title>TestActividadfisicaPage&#45;&gt;AppModule</title>
<path fill="none" stroke="#000000" d="M1235,-122.0267C1235,-142.7672 1235,-174 1235,-174 1235,-174 3042.1236,-174 3042.1236,-174"/>
<polygon fill="#000000" stroke="#000000" points="3042.1236,-177.5001 3052.1236,-174 3042.1236,-170.5001 3042.1236,-177.5001"/>
</g>
<!-- TestAguaPage -->
<g id="node40" class="node">
<title>TestAguaPage</title>
<polygon fill="#ffffb3" stroke="#000000" points="1140.6361,-122 1043.3639,-122 1043.3639,-86 1140.6361,-86 1140.6361,-122"/>
<text text-anchor="middle" x="1092" y="-99.8" font-family="Times,serif" font-size="14.00" fill="#000000">TestAguaPage</text>
</g>
<!-- TestAguaPage&#45;&gt;AppModule -->
<g id="edge40" class="edge">
<title>TestAguaPage&#45;&gt;AppModule</title>
<path fill="none" stroke="#000000" d="M1092,-122.2843C1092,-143.3211 1092,-175 1092,-175 1092,-175 3042.1854,-175 3042.1854,-175"/>
<polygon fill="#000000" stroke="#000000" points="3042.1854,-178.5001 3052.1854,-175 3042.1853,-171.5001 3042.1854,-178.5001"/>
</g>
<!-- TestAutocontrolPage -->
<g id="node41" class="node">
<title>TestAutocontrolPage</title>
<polygon fill="#ffffb3" stroke="#000000" points="1025.4678,-122 890.5322,-122 890.5322,-86 1025.4678,-86 1025.4678,-122"/>
<text text-anchor="middle" x="958" y="-99.8" font-family="Times,serif" font-size="14.00" fill="#000000">TestAutocontrolPage</text>
</g>
<!-- TestAutocontrolPage&#45;&gt;AppModule -->
<g id="edge41" class="edge">
<title>TestAutocontrolPage&#45;&gt;AppModule</title>
<path fill="none" stroke="#000000" d="M958,-122.0449C958,-143.6623 958,-177 958,-177 958,-177 3042.2903,-177 3042.2903,-177"/>
<polygon fill="#000000" stroke="#000000" points="3042.2904,-180.5001 3052.2903,-177 3042.2903,-173.5001 3042.2904,-180.5001"/>
</g>
<!-- TestBiencomerPage -->
<g id="node42" class="node">
<title>TestBiencomerPage</title>
<polygon fill="#ffffb3" stroke="#000000" points="872.2367,-122 743.7633,-122 743.7633,-86 872.2367,-86 872.2367,-122"/>
<text text-anchor="middle" x="808" y="-99.8" font-family="Times,serif" font-size="14.00" fill="#000000">TestBiencomerPage</text>
</g>
<!-- TestBiencomerPage&#45;&gt;AppModule -->
<g id="edge42" class="edge">
<title>TestBiencomerPage&#45;&gt;AppModule</title>
<path fill="none" stroke="#000000" d="M808,-122.2921C808,-144.2057 808,-178 808,-178 808,-178 3041.876,-178 3041.876,-178"/>
<polygon fill="#000000" stroke="#000000" points="3041.8761,-181.5001 3051.876,-178 3041.876,-174.5001 3041.8761,-181.5001"/>
</g>
<!-- TestDesayunarmasPage -->
<g id="node43" class="node">
<title>TestDesayunarmasPage</title>
<polygon fill="#ffffb3" stroke="#000000" points="725.7199,-122 576.2801,-122 576.2801,-86 725.7199,-86 725.7199,-122"/>
<text text-anchor="middle" x="651" y="-99.8" font-family="Times,serif" font-size="14.00" fill="#000000">TestDesayunarmasPage</text>
</g>
<!-- TestDesayunarmasPage&#45;&gt;AppModule -->
<g id="edge43" class="edge">
<title>TestDesayunarmasPage&#45;&gt;AppModule</title>
<path fill="none" stroke="#000000" d="M651,-122.0109C651,-144.4852 651,-180 651,-180 651,-180 3042.1112,-180 3042.1112,-180"/>
<polygon fill="#000000" stroke="#000000" points="3042.1112,-183.5001 3052.1112,-180 3042.1111,-176.5001 3042.1112,-183.5001"/>
</g>
<!-- TestDescansoadecuadoPage -->
<g id="node44" class="node">
<title>TestDescansoadecuadoPage</title>
<polygon fill="#ffffb3" stroke="#000000" points="557.8123,-122 384.1877,-122 384.1877,-86 557.8123,-86 557.8123,-122"/>
<text text-anchor="middle" x="471" y="-99.8" font-family="Times,serif" font-size="14.00" fill="#000000">TestDescansoadecuadoPage</text>
</g>
<!-- TestDescansoadecuadoPage&#45;&gt;AppModule -->
<g id="edge44" class="edge">
<title>TestDescansoadecuadoPage&#45;&gt;AppModule</title>
<path fill="none" stroke="#000000" d="M471,-122.2479C471,-145.0179 471,-181 471,-181 471,-181 3042.2693,-181 3042.2693,-181"/>
<polygon fill="#000000" stroke="#000000" points="3042.2694,-184.5001 3052.2693,-181 3042.2693,-177.5001 3042.2694,-184.5001"/>
</g>
<!-- TestPage -->
<g id="node45" class="node">
<title>TestPage</title>
<polygon fill="#ffffb3" stroke="#000000" points="365.8149,-122 298.1851,-122 298.1851,-86 365.8149,-86 365.8149,-122"/>
<text text-anchor="middle" x="332" y="-99.8" font-family="Times,serif" font-size="14.00" fill="#000000">TestPage</text>
</g>
<!-- TestPage&#45;&gt;AppModule -->
<g id="edge45" class="edge">
<title>TestPage&#45;&gt;AppModule</title>
<path fill="none" stroke="#000000" d="M332,-122.3228C332,-145.6602 332,-183 332,-183 332,-183 3042.2684,-183 3042.2684,-183"/>
<polygon fill="#000000" stroke="#000000" points="3042.2684,-186.5001 3052.2684,-183 3042.2684,-179.5001 3042.2684,-186.5001"/>
</g>
<!-- TestSerfelizPage -->
<g id="node46" class="node">
<title>TestSerfelizPage</title>
<polygon fill="#ffffb3" stroke="#000000" points="280.3431,-122 169.6569,-122 169.6569,-86 280.3431,-86 280.3431,-122"/>
<text text-anchor="middle" x="225" y="-99.8" font-family="Times,serif" font-size="14.00" fill="#000000">TestSerfelizPage</text>
</g>
<!-- TestSerfelizPage&#45;&gt;AppModule -->
<g id="edge46" class="edge">
<title>TestSerfelizPage&#45;&gt;AppModule</title>
<path fill="none" stroke="#000000" d="M225,-122.1532C225,-145.7566 225,-184 225,-184 225,-184 3042.337,-184 3042.337,-184"/>
<polygon fill="#000000" stroke="#000000" points="3042.337,-187.5001 3052.337,-184 3042.3369,-180.5001 3042.337,-187.5001"/>
</g>
<!-- IonicApp  -->
<g id="node48" class="node">
<title>IonicApp </title>
<polygon fill="#80b1d3" stroke="#000000" points="3130.3734,-252 3057.6266,-252 3057.6266,-216 3130.3734,-216 3130.3734,-252"/>
<text text-anchor="middle" x="3094" y="-229.8" font-family="Times,serif" font-size="14.00" fill="#000000">IonicApp </text>
</g>
<!-- AppModule&#45;&gt;IonicApp  -->
<g id="edge47" class="edge">
<title>AppModule&#45;&gt;IonicApp </title>
<path fill="none" stroke="#000000" stroke-dasharray="1,5" d="M3094,-187.1061C3094,-187.1061 3094,-205.991 3094,-205.991"/>
<polygon fill="#000000" stroke="#000000" points="3090.5001,-205.9909 3094,-215.991 3097.5001,-205.991 3090.5001,-205.9909"/>
</g>
<!-- RestProvider -->
<g id="node49" class="node">
<title>RestProvider</title>
<ellipse fill="#fdb462" stroke="#000000" cx="85" cy="-104" rx="61.4128" ry="18"/>
<text text-anchor="middle" x="85" y="-99.8" font-family="Times,serif" font-size="14.00" fill="#000000">RestProvider</text>
</g>
<!-- RestProvider&#45;&gt;AppModule -->
<g id="edge48" class="edge">
<title>RestProvider&#45;&gt;AppModule</title>
<path fill="none" stroke="#000000" d="M85,-122.1985C85,-146.3563 85,-186 85,-186 85,-186 3042.324,-186 3042.324,-186"/>
<polygon fill="#000000" stroke="#000000" points="3042.3241,-189.5001 3052.324,-186 3042.324,-182.5001 3042.3241,-189.5001"/>
</g>
</g>
</svg>
